<svg xmlns="http://www.w3.org/2000/svg" width="70" height="44" fill="none" viewBox="0 0 70 44">
  <path fill="#386CB9" d="M50.313 0A2.187 2.187 0 0 1 52.5 2.188v2.187h4.462a6.563 6.563 0 0 1 5.12 2.463l6.479 8.094A6.562 6.562 0 0 1 70 19.036v9.401A6.563 6.563 0 0 1 63.437 35H61.25a8.75 8.75 0 0 1-17.5 0H21.875a8.75 8.75 0 0 1-17.5 0A4.375 4.375 0 0 1 0 30.625V26.25h48.125V2.187A2.188 2.188 0 0 1 50.313 0ZM13.124 30.625a4.375 4.375 0 1 0 0 8.75 4.375 4.375 0 0 0 0-8.75Zm39.375 0a4.375 4.375 0 1 0 0 8.75 4.375 4.375 0 0 0 0-8.75Zm7.578 0h3.36a2.188 2.188 0 0 0 2.187-2.188v-9.406c0-.496-.17-.977-.481-1.365l-6.475-8.094a2.188 2.188 0 0 0-1.706-.822H52.5v17.5a8.75 8.75 0 0 1 7.578 4.375Z"/>
</svg>
