<svg xmlns="http://www.w3.org/2000/svg" width="70" height="70" fill="none" viewBox="0 0 70 70">
  <path fill="#386CB9" d="M0 26.572V10.604A4.242 4.242 0 0 1 2.346 6.81L15.073.447a4.243 4.243 0 0 1 3.793 0l12.727 6.364a4.242 4.242 0 0 1 2.346 3.793v15.968a4.242 4.242 0 0 1-2.346 3.797l-12.727 6.364a4.243 4.243 0 0 1-3.793 0L2.346 30.369A4.242 4.242 0 0 1 0 26.572Zm4.412-15.17a2.121 2.121 0 0 0 1.129 2.778l9.308 3.929v11.085a2.121 2.121 0 0 0 4.242 0V18.11l9.308-3.929a2.121 2.121 0 0 0-1.65-3.907l-9.78 4.128-9.782-4.128a2.121 2.121 0 0 0-2.78 1.128h.005ZM2.3 53.587V35.091l4.243 2.121v16.376a3.18 3.18 0 0 0 3.182 3.182h1.098a10.606 10.606 0 0 1 20.788 0h4.667a10.606 10.606 0 0 1 12.51-8.273V13.285a3.182 3.182 0 0 0-3.18-3.182h-7.442a8.484 8.484 0 0 0-1.434-4.242h8.87a7.424 7.424 0 0 1 7.425 7.424v5.303h3.742a6.365 6.365 0 0 1 5.693 3.521l6.864 13.724a6.38 6.38 0 0 1 .675 2.847v15.97a6.364 6.364 0 0 1-6.364 6.363h-6.575a10.606 10.606 0 0 1-20.788 0h-4.667a10.606 10.606 0 0 1-20.788 0H9.72a7.424 7.424 0 0 1-7.424-7.424H2.3Zm54.762 3.182h6.575a2.121 2.121 0 0 0 2.122-2.121V39.8H53.03v10.606a10.585 10.585 0 0 1 4.03 6.364Zm7.39-21.212-5.778-11.552a2.12 2.12 0 0 0-1.897-1.175H53.03v12.727h11.421ZM14.849 58.89a6.364 6.364 0 1 0 12.727 0 6.364 6.364 0 0 0-12.728 0Zm31.818 6.364a6.364 6.364 0 1 0 0-12.728 6.364 6.364 0 0 0 0 12.728Z"/>
</svg>
